<svg xmlns="http://www.w3.org/2000/svg" width="240" height="234" viewBox="0 0 240 234"><rect width="240" height="234" rx="42.5" ry="42.5" style="fill:#eb1000"/><path d="M131.006 156.754a1.801 1.801 0 1 1-3.602 0 1.801 1.801 0 0 1 3.602 0m-3.602 4.319c-.532 0-.998.206-1.4.492.08-.231.147-.47.147-.728a2.282 2.282 0 1 0-2.28 2.28c.47 0 .883-.175 1.248-.421a2.4 2.4 0 0 0-.169.831c0 1.354 1.1 2.455 2.454 2.455a2.456 2.456 0 0 0 0-4.91m-4.264 5.446c-.089-1.472-1.282-2.648-2.777-2.648-.263 0-.499.083-.739.149a2.63 2.63 0 0 0 .713-1.78 2.654 2.654 0 1 0-2.653 2.654c.228 0 .433-.076.645-.13a2.8 2.8 0 0 0-.777 1.919c0 1.278.871 2.313 2.04 2.655 0 .038-.02.068-.02.105a3.034 3.034 0 0 0 6.065 0c0-1.484-1.087-2.663-2.497-2.924m-7.014 2.734c.132-.345.222-.709.222-1.1 0-1.609-1.237-2.887-2.803-3.043.385-.493.653-1.085.653-1.761 0-1.387-.991-2.49-2.29-2.779.594-.495.995-1.21.995-2.045 0-1.035-.603-1.907-1.46-2.356 1.324-.058 2.385-1.133 2.385-2.47a2.487 2.487 0 0 0-4.976 0c0 .932.535 1.716 1.295 2.143a2.69 2.69 0 0 0-2.638 2.683c0 1.259.88 2.266 2.045 2.565-.686.53-1.157 1.324-1.157 2.259 0 1.464 1.103 2.625 2.513 2.824-.457.54-.765 1.216-.765 1.98 0 1.487 1.07 2.67 2.465 2.971-.23.465-.388.97-.388 1.525a3.48 3.48 0 0 0 6.961 0c0-1.77-1.344-3.178-3.057-3.396m-35.615-21.375c0 1.234-.709 2.271-1.715 2.837.184-.033.35-.111.543-.111a3.305 3.305 0 0 1 3.305 3.304c0 .527-.15 1.007-.368 1.45.576-.498 1.303-.83 2.125-.83a3.285 3.285 0 0 1 3.277 3.218c.356-1.364 1.516-2.376 2.974-2.442-.304-.457-.526-.977-.526-1.57a2.901 2.901 0 1 1 5.803 0c0 1.493-1.142 2.678-2.592 2.84.434.554.734 1.223.734 1.981 0 .857-.347 1.623-.885 2.206.596.575.948 1.362 1.043 2.229.097-.835.46-1.576 1.05-2.113-.667-.57-1.112-1.387-1.112-2.332 0-1.62 1.255-2.909 2.84-3.052-.404-.485-.678-1.088-.678-1.769 0-1.022.573-1.876 1.387-2.369-1.2-.193-2.134-1.188-2.134-2.447a2.525 2.525 0 0 1 5.052 0c0 .885-.48 1.623-1.166 2.075 1.386.171 2.475 1.307 2.475 2.741 0 1.41-1.055 2.525-2.407 2.726.513.553.842 1.281.842 2.095 0 .827-.336 1.568-.863 2.126.846.618 1.432 1.567 1.432 2.695 0 .616-.209 1.164-.495 1.661 1.118.633 1.905 1.786 1.905 3.16 0 .395-.109.757-.224 1.113.381.181.73.415 1.035.699-.348-.533-.602-1.133-.602-1.82 0-.723.278-1.358.666-1.911a3.14 3.14 0 0 1-1.972-2.912c0-.937.43-1.756 1.08-2.331-.878-.5-1.497-1.407-1.497-2.49 0-1.517 1.177-2.723 2.66-2.854-.554-.485-.922-1.175-.922-1.97 0-1.085.656-2.012 1.59-2.421-.138.025-.263.083-.408.083a2.477 2.477 0 1 1 2.476-2.477 2.47 2.47 0 0 1-1.485 2.263c.16-.03.307-.095.475-.095a2.65 2.65 0 0 1 2.648 2.648c0 1.356-1.036 2.437-2.353 2.587.666.533 1.12 1.317 1.12 2.236 0 .794-.32 1.513-.838 2.035 1.027.52 1.75 1.558 1.75 2.786 0 .618-.223 1.161-.53 1.648 1.342.453 2.323 1.684 2.323 3.176 0 .417-.1.806-.237 1.176 1.608.47 2.806 1.894 2.806 3.653a3.866 3.866 0 0 1-3.866 3.866c-1.844 0-3.314-1.319-3.701-3.047-.387 1.881-1.975 3.323-3.972 3.323-1.624 0-2.997-.96-3.674-2.321-.694 1.527-2.213 2.6-4 2.6-1.634 0-3.003-.932-3.764-2.253-.772 1.394-2.202 2.376-3.908 2.376-1.652 0-3.036-.93-3.826-2.253-.792 1.334-2.185 2.27-3.848 2.27-1.943 0-3.572-1.233-4.22-2.949a4.54 4.54 0 0 1-3.211 1.327 4.56 4.56 0 0 1-4.557-4.557c0-.196.087-.365.111-.553-.466.163-.95.296-1.472.296a4.52 4.52 0 0 1-4.522-4.522c0-.98.378-1.836.907-2.577-2.236-.206-4.007-2.028-4.007-4.319 0-1.743 1.036-3.223 2.51-3.934-1.3-.731-2.217-2.073-2.217-3.67 0-2.304 1.834-4.156 4.118-4.241a4.13 4.13 0 0 1-1.192-2.9 4.147 4.147 0 0 1 4.148-4.147c.07 0 .127.035.196.04-.799-.746-1.314-1.789-1.314-2.97a4.087 4.087 0 0 1 4.089-4.087c.167 0 .308.075.468.095-.909-.738-1.527-1.82-1.527-3.085a4.03 4.03 0 0 1 4.028-4.03c.264 0 .494.101.743.151-1.026-.718-1.741-1.849-1.741-3.198a3.97 3.97 0 0 1 3.97-3.969c.361 0 .686.116 1.02.206-1.15-.68-1.96-1.88-1.96-3.314a3.91 3.91 0 0 1 3.91-3.911c.458 0 .883.115 1.291.261-1.275-.628-2.172-1.912-2.172-3.427a3.85 3.85 0 0 1 3.852-3.851c1.134 0 2.129.51 2.834 1.291.44-.193.923-.311 1.437-.311 1.148 0 2.122.575 2.777 1.417.45-.232.94-.395 1.48-.395 1.174 0 2.155.648 2.737 1.573.442-.256.927-.442 1.476-.442 1.394 0 2.513.97 2.85 2.258.3-.113.618-.193.958-.193a2.723 2.723 0 0 1 2.725 2.723c0 .799-.357 1.5-.905 2a2.406 2.406 0 0 1 3.336 2.218c0 .653-.264 1.244-.688 1.676.38-.342.87-.563 1.42-.563a2.145 2.145 0 1 1-2.144 2.146c0-.583.236-1.108.613-1.495-.428.39-.983.64-1.606.64a2.405 2.405 0 0 1-1.694-4.11c-.324.139-.681.214-1.057.214-1.18 0-2.162-.761-2.54-1.814a2.95 2.95 0 0 1-1.268.304c-.976 0-1.802-.495-2.35-1.216-.536.38-1.155.65-1.862.65a3.26 3.26 0 0 1-2.384-1.052c-.553.352-1.171.608-1.874.608-.938 0-1.775-.38-2.412-.97-.56.317-1.17.546-1.86.546-.449 0-.866-.116-1.267-.257.368.181.715.397 1.006.679.515-.28 1.076-.48 1.702-.48 1.067 0 2.004.48 2.667 1.216.513-.324 1.086-.56 1.736-.56 1.092 0 2.014.56 2.62 1.369.498-.36 1.078-.616 1.74-.616 1.3 0 2.387.824 2.82 1.972.345-.155.72-.253 1.123-.253a2.746 2.746 0 0 1 2.746 2.745c0 .56-.208 1.053-.496 1.488.215-.063.428-.136.665-.136a2.44 2.44 0 0 1 2.438 2.44 2.4 2.4 0 0 1-.274 1.072c.328-.198.69-.344 1.102-.344a2.173 2.173 0 1 1-2.174 2.173c0-.316.074-.613.196-.884-.379.246-.804.422-1.288.422a2.44 2.44 0 0 1-2.44-2.44c0-.452.156-.851.372-1.215-.271.087-.546.17-.847.17-1.095 0-2.025-.653-2.465-1.58-.444.251-.93.437-1.478.437-.885 0-1.664-.394-2.22-1-.58.5-1.313.832-2.14.832-.854 0-1.616-.347-2.206-.877-.615.483-1.355.817-2.197.817-.488 0-.95-.103-1.376-.28.403.177.762.428 1.076.727.568-.437 1.246-.741 2.019-.741 1.007 0 1.885.465 2.5 1.165.541-.474 1.232-.788 2.008-.788 1.221 0 2.256.726 2.749 1.76.399-.223.836-.386 1.327-.386a2.77 2.77 0 0 1 2.769 2.766c0 .352-.08.683-.2.992.168-.037.327-.103.508-.103a2.474 2.474 0 0 1 2.473 2.475c0 .236-.073.452-.134.668.317-.18.665-.311 1.057-.311a2.187 2.187 0 1 1-2.187 2.188c0-.179.062-.337.102-.503-.387.249-.819.43-1.311.43a2.474 2.474 0 0 1-2.474-2.472c0-.264.074-.508.151-.746-.245.07-.486.15-.754.15-1.012 0-1.86-.572-2.342-1.384-.5.354-1.076.606-1.734.606a3.04 3.04 0 0 1-2.076-.837 3.3 3.3 0 0 1-1.044.746c.195-.04.375-.118.583-.118 1.143 0 2.103.65 2.638 1.573.454-.32.977-.548 1.574-.548a2.79 2.79 0 0 1 2.79 2.791c0 .199-.073.374-.114.56.186-.042.362-.113.562-.113a2.49 2.49 0 0 1 2.487 2.49c0 .123-.053.229-.069.344.33-.198.693-.344 1.107-.344a2.186 2.186 0 1 1-2.186 2.186c0-.06.029-.108.034-.169-.4.274-.854.47-1.373.47a2.49 2.49 0 0 1-2.488-2.487c0-.11.048-.204.062-.309-.261.08-.525.163-.812.163-.932 0-1.716-.485-2.223-1.186-.542.463-1.222.772-1.99.772-.764 0-1.441-.307-1.981-.766-.134.175-.257.349-.422.497 1.007.043 1.854.573 2.399 1.347.496-.42 1.114-.701 1.814-.701a2.843 2.843 0 0 1 2.842 2.844c0 .045-.024.082-.026.128.193-.048.378-.118.585-.118a2.498 2.498 0 1 1 0 4.997c-1.328 0-2.389-1.046-2.467-2.352-.296.103-.603.188-.934.188-.852 0-1.592-.391-2.113-.984-.57.572-1.36.93-2.234.93-.726 0-1.363-.287-1.895-.7-.076.124-.15.242-.24.355.843.11 1.563.52 2.071 1.15a2.88 2.88 0 0 1 2.063-.871 2.895 2.895 0 1 1 0 5.79c-.823 0-1.556-.349-2.084-.901-.59.716-1.45 1.2-2.45 1.2m.444 19.446c.67.457 1.23 1.05 1.537 1.81.1-.162.198-.323.318-.469-.49-.603-.813-1.336-.844-2.165-.284.339-.624.605-1.011.824m7.765.927c.391.366.709.798.932 1.293.09-.193.233-.349.352-.522-.436-.415-.73-.945-.918-1.53-.09.274-.217.517-.366.759m7.358-1.48a3.6 3.6 0 0 1-.433 1.372 3.86 3.86 0 0 1 1.375 2.17c.109-.424.281-.804.523-1.153a3.32 3.32 0 0 1-1.465-2.39m-8.115-3.19c.53.444.913 1.017 1.128 1.69a3.55 3.55 0 0 1 1.074-1.61c-.466-.553-.771-1.239-.789-2.013a3.2 3.2 0 0 1-1.413 1.932m-6.778-3.347c-1.217 0-2.236-.688-2.809-1.668.015.138.08.256.08.4 0 .632-.198 1.198-.477 1.72.38-.13.771-.241 1.196-.241 1.998 0 3.604 1.59 3.674 3.572a3.6 3.6 0 0 1 1.064-.856 3.28 3.28 0 0 1-.958-2.322c0-.522.147-.997.364-1.437-.58.5-1.31.832-2.134.832m-2.124-6.04c-.83 0-1.564-.334-2.145-.839a3.57 3.57 0 0 1-1.62 2.01c1.14.176 2.085.84 2.633 1.806-.006-.085-.05-.158-.05-.243 0-1.239.712-2.276 1.72-2.842-.182.03-.347.108-.538.108m4.552-24.107c-.76 0-1.426-.297-1.989-.721-.14.135-.325.213-.486.326.852.055 1.63.387 2.197.955.274-.294.598-.53.966-.699-.23.048-.443.139-.688.139m-3.154-6.74c-.29-.126-.528-.327-.772-.52-.138.095-.267.2-.417.28.416.023.822.088 1.189.24m2.965-14.027c.56 0 1.082-.136 1.56-.354.644.698 1.547 1.15 2.572 1.15.589 0 1.12-.18 1.607-.434.594.751 1.473 1.264 2.506 1.264.587 0 1.109-.199 1.583-.473.524.842 1.415 1.432 2.479 1.432.388 0 .755-.085 1.094-.22.281 1.193 1.304 2.097 2.581 2.097 1.398 0 2.51-1.075 2.65-2.437.327.897 1.169 1.545 2.179 1.545a2.338 2.338 0 1 0 0-4.675c-1.197 0-2.148.912-2.286 2.072-.343-1.097-1.332-1.909-2.543-1.909-.279 0-.532.08-.785.158-.203-1.442-1.392-2.57-2.89-2.57-.434 0-.84.103-1.211.272-.539-1.043-1.597-1.78-2.852-1.78a3.2 3.2 0 0 0-1.213.247c-.63-.962-1.664-1.635-2.9-1.635-.406 0-.78.105-1.145.23-.69-.924-1.742-1.562-2.986-1.562a3.791 3.791 0 1 0 0 7.582m2.97-7.137c.448 0 .865-.11 1.264-.254.634.84 1.594 1.42 2.728 1.42.472 0 .922-.099 1.333-.27.571.875 1.51 1.488 2.634 1.488.468 0 .907-.113 1.307-.294.482.967 1.455 1.648 2.608 1.648.323 0 .62-.088.91-.183.135 1.356 1.24 2.426 2.631 2.426 1.186 0 2.158-.78 2.513-1.849a2.35 2.35 0 0 0 2.154 1.417 2.351 2.351 0 0 0 0-4.703c-.995 0-1.837.623-2.18 1.498a2.67 2.67 0 0 0-2.487-1.726c-.217 0-.412.075-.614.123a2.93 2.93 0 0 0-2.927-2.88c-.334 0-.642.089-.94.192-.46-1.209-1.607-2.075-2.975-2.075-.315 0-.602.095-.89.18-.571-1.138-1.718-1.939-3.077-1.939-.298 0-.564.098-.84.17-.652-1.09-1.792-1.853-3.152-1.853a3.733 3.733 0 0 0 0 7.464m2.97-7.135c.336 0 .636-.108.945-.191.594 1.012 1.648 1.726 2.908 1.726.353 0 .674-.1.994-.201.51 1.06 1.573 1.804 2.827 1.804.374 0 .719-.093 1.052-.211.394 1.135 1.444 1.962 2.716 1.962.272 0 .517-.086.768-.156-.002.038-.021.068-.021.103 0 1.47 1.19 2.66 2.66 2.66 1.018 0 1.875-.592 2.32-1.434a2.36 2.36 0 0 0 2.183 1.465 2.364 2.364 0 1 0 0-4.728c-.873 0-1.605.497-2.014 1.2-.354-1.052-1.318-1.821-2.49-1.821-.2 0-.375.07-.562.113.012-.105.062-.198.062-.309a2.907 2.907 0 0 0-2.906-2.907c-.27 0-.51.086-.757.154-.344-1.375-1.53-2.415-3.01-2.415-.225 0-.424.083-.636.128-.481-1.308-1.711-2.253-3.186-2.253-.19 0-.354.078-.535.108-.583-1.259-1.839-2.143-3.317-2.143a3.673 3.673 0 0 0 0 7.346m2.971-7.137c.222 0 .414-.088.625-.126a3.37 3.37 0 0 0 3.087 2.032c.268 0 .505-.093.754-.153.416 1.236 1.548 2.14 2.923 2.14.303 0 .578-.092.856-.173.266 1.314 1.371 2.322 2.762 2.322.26 0 .493-.083.733-.149-.031.164-.098.314-.098.485a2.64 2.64 0 0 0 2.638 2.638c.89 0 1.638-.47 2.116-1.145.315.944 1.177 1.635 2.225 1.635a2.377 2.377 0 0 0 0-4.753c-.76 0-1.408.382-1.842.937-.308-1.116-1.285-1.952-2.499-1.952-.19 0-.356.07-.536.108.056-.224.138-.44.138-.681a2.874 2.874 0 0 0-2.875-2.874c-.202 0-.38.075-.572.116-.19-1.543-1.453-2.751-3.046-2.751-.164 0-.305.067-.463.093-.36-1.473-1.628-2.588-3.214-2.588-.118 0-.217.055-.331.068-.488-1.42-1.795-2.455-3.38-2.455a3.612 3.612 0 1 0 0 7.226m2.971-7.138c.157 0 .292-.07.442-.09.417 1.359 1.635 2.366 3.13 2.366.203 0 .378-.08.571-.115.283 1.41 1.468 2.492 2.96 2.492.234 0 .442-.083.66-.133.093 1.487 1.3 2.673 2.81 2.673.248 0 .469-.08.697-.14-.095.27-.173.554-.173.858a2.62 2.62 0 0 0 2.617 2.618c1.026 0 1.894-.605 2.322-1.467-.014.1-.06.19-.06.296 0 1.32 1.069 2.387 2.388 2.387s2.388-1.068 2.388-2.387-1.07-2.389-2.388-2.389c-.932 0-1.719.55-2.112 1.33.02-.134.078-.252.078-.388a2.615 2.615 0 0 0-2.616-2.615c-.18 0-.338.068-.51.103.131-.327.213-.678.213-1.05a2.844 2.844 0 0 0-2.844-2.844c-.14 0-.26.06-.394.08l.002-.012c0-1.701-1.378-3.078-3.079-3.078-.103 0-.19.048-.288.058-.208-1.635-1.55-2.92-3.241-2.92-.063 0-.115.034-.176.036-.364-1.575-1.711-2.776-3.397-2.776a3.555 3.555 0 0 0 0 7.107m3.024-7.112c.14 0 .259-.063.393-.08.24 1.58 1.542 2.81 3.19 2.81.209 0 .392-.082.592-.12a3.06 3.06 0 0 0 3.056 3.03c.34 0 .654-.09.96-.193-.035.178-.108.344-.108.535a2.855 2.855 0 0 0 2.854 2.854c.471 0 .897-.144 1.289-.345-.367.455-.618 1.01-.618 1.638a2.649 2.649 0 1 0 2.648-2.648 2.6 2.6 0 0 0-1.143.284c.404-.492.678-1.097.678-1.783a2.854 2.854 0 0 0-2.854-2.854c-.279 0-.53.083-.784.158.058-.234.143-.46.143-.711a3.065 3.065 0 0 0-3.065-3.065c-.14 0-.258.06-.393.08.001-.052.03-.093.03-.145a3.284 3.284 0 0 0-3.286-3.284c-.054 0-.098.028-.152.03-.166-1.773-1.613-3.18-3.43-3.18a3.495 3.495 0 0 0 0 6.989m4.362-6.346c.234 0 .44-.088.661-.133-.012.113-.067.21-.067.326a3.264 3.264 0 0 0 3.265 3.264c.356 0 .681-.098 1.003-.201-.087.284-.179.568-.179.88a3.087 3.087 0 0 0 3.087 3.087c.692 0 1.3-.272 1.815-.656-.46.515-.76 1.178-.76 1.924a2.924 2.924 0 1 0 2.924-2.924c-.648 0-1.216.251-1.7.608.488-.545.807-1.248.807-2.04a3.086 3.086 0 0 0-3.086-3.085c-.303 0-.577.09-.853.17.11-.326.207-.662.207-1.027a3.266 3.266 0 0 0-3.265-3.266c-.183 0-.343.076-.519.106.023-.16.095-.302.095-.467a3.434 3.434 0 1 0-3.435 3.434m5.954-4.861c.386 0 .743-.1 1.088-.219-.19.412-.314.864-.314 1.35a3.245 3.245 0 1 0 3.246-3.247c-.36 0-.69.098-1.012.204.22-.447.368-.932.368-1.465 0-1.864-1.511-3.374-3.376-3.374s-3.375 1.51-3.375 3.374 1.511 3.377 3.375 3.377m7.056-3.005a3.316 3.316 0 1 0 0-6.632 3.316 3.316 0 0 0 0 6.632m7.605-.907a3.256 3.256 0 1 0 .002-6.512 3.256 3.256 0 0 0-.002 6.512m7.534 1.269a3.198 3.198 0 1 0-.002-6.396 3.198 3.198 0 0 0 .002 6.396m9.567 6.255c-.3-.093-.604-.188-.937-.188a3.168 3.168 0 0 0-2.917 4.401c-.225-.05-.436-.135-.676-.135a3.17 3.17 0 0 0-3.173 3.173c0 .663.25 1.243.598 1.75-.203-.04-.393-.122-.61-.122a3.135 3.135 0 0 0-3.133 3.135c0 .784.316 1.48.792 2.03-.268-.08-.537-.168-.832-.168a3.002 3.002 0 1 0 3 3.002c0-.739-.296-1.392-.738-1.915.294.09.588.184.912.184a3.134 3.134 0 0 0 3.133-3.133c0-.65-.245-1.22-.583-1.72.21.044.41.127.634.127a3.172 3.172 0 0 0 2.918-4.411c.225.05.436.135.675.135a3.166 3.166 0 0 0 3.166-3.165c0-.337-.094-.643-.19-.947.278.083.556.173.863.173a3.077 3.077 0 1 0 0-6.155 3.077 3.077 0 0 0-3.078 3.078c0 .309.092.59.176.871m31.256 69.286a2.446 2.446 0 1 0 4.893.001 2.446 2.446 0 0 0-4.893 0m3.078 7.07a2.355 2.355 0 1 0 4.71-.002 2.355 2.355 0 0 0-4.71.002m3.077 7.067a2.262 2.262 0 1 0 4.524.003 2.262 2.262 0 0 0-4.524-.003m2.928 7.13a2.17 2.17 0 0 0 4.34 0 2.17 2.17 0 0 0-2.17-2.168c-1.197 0-2.17.97-2.17 2.168m2.408 5.53a2.078 2.078 0 1 0 0 4.154 2.078 2.078 0 0 0 0-4.155m-3.164 7.013a1.986 1.986 0 1 0 0 3.972 1.986 1.986 0 0 0 0-3.972m-5.36 5.41a1.892 1.892 0 1 0-.001 3.787 1.892 1.892 0 0 0 .001-3.788m-6.046 1.577a2.21 2.21 0 0 0 0 4.417 2.208 2.208 0 1 0 0-4.417M114.62 58.677c0 1.782 1.444 3.224 3.225 3.224a3.224 3.224 0 1 0 0-6.45 3.225 3.225 0 0 0-3.225 3.226m7.279.335a3.206 3.206 0 1 0 6.411 0 3.206 3.206 0 0 0-6.411 0m10.014-.656a3.187 3.187 0 0 0-3.187 3.185c0 .807.325 1.525.82 2.086a3.15 3.15 0 1 0 1.913 2.897c0-.797-.321-1.506-.809-2.058.389.166.813.264 1.263.264a3.187 3.187 0 0 0 3.187-3.189c0-.655-.247-1.23-.586-1.735.407.193.852.321 1.333.321a3.139 3.139 0 1 0-3.138-3.138c0 .643.24 1.206.572 1.704-.418-.201-.872-.337-1.368-.337m38.048 78.368a2.435 2.435 0 1 0 .001 4.87 2.435 2.435 0 0 0 0-4.87m5.155 9.15c0-1.287-1.042-2.33-2.33-2.33s-2.33 1.043-2.33 2.33a2.33 2.33 0 1 0 4.66 0m2.721 6.717a2.228 2.228 0 1 0-4.455-.001 2.228 2.228 0 0 0 4.455.001m-.463 9.157a2.121 2.121 0 1 0 0-4.242 2.121 2.121 0 0 0 0 4.242m-59.432-96.21a3.108 3.108 0 1 0-6.216.002 3.108 3.108 0 0 0 6.216-.001m3.715-3.79a3.13 3.13 0 1 0 0 6.259 3.13 3.13 0 0 0 0-6.26m43.42 83.816a2.39 2.39 0 1 0 4.78.002 2.39 2.39 0 0 0-4.78-.002m2.771 6.351a2.274 2.274 0 0 0 2.277 2.274 2.274 2.274 0 1 0 0-4.55 2.275 2.275 0 0 0-2.277 2.276m6.885 6.43a2.16 2.16 0 1 0-4.32 0 2.16 2.16 0 0 0 4.32 0m-.115 4.949a2.044 2.044 0 1 0 0 4.09 2.045 2.045 0 1 0 0-4.09m-52.16-4.457a2.202 2.202 0 1 0-.002-4.404 2.202 2.202 0 0 0 .002 4.404m-5.542.595a2.492 2.492 0 1 0 0-4.983 2.492 2.492 0 0 0 0 4.983m1.895-85.289a2.995 2.995 0 1 0-.001-5.99 2.995 2.995 0 0 0 .001 5.99m9.472-2.203a3.067 3.067 0 1 0-6.13 0 3.067 3.067 0 0 0 6.13 0m34.066 71.328a2.45 2.45 0 1 0 0 4.9 2.45 2.45 0 1 0 0-4.9m.163 8.421a2.323 2.323 0 1 0 4.647.001 2.323 2.323 0 0 0-4.647 0m7.01 5.977a2.198 2.198 0 1 0-4.396 0 2.198 2.198 0 0 0 4.396 0m.89 8.155a2.07 2.07 0 1 0 .002-4.141 2.07 2.07 0 0 0-.002 4.14m2.426 3.785a1.946 1.946 0 1 0-3.892-.003 1.946 1.946 0 0 0 3.892.003m-51.56-17.678a2.33 2.33 0 1 0-4.66.002 2.33 2.33 0 0 0 4.66-.002m-34.091 3.291a2.914 2.914 0 1 0 0-5.828 2.914 2.914 0 0 0 0 5.828m-.862-7.57a2.927 2.927 0 1 0-5.855.002 2.927 2.927 0 0 0 5.855-.001m26.94-69.745a2.77 2.77 0 0 0 2.768 2.768 2.768 2.768 0 0 0 0-5.534 2.766 2.766 0 0 0-2.768 2.766m5.942-.312a2.884 2.884 0 1 0 5.768 0 2.884 2.884 0 0 0-5.768 0m38.171 74.336a2.372 2.372 0 1 0 4.744 0 2.372 2.372 0 0 0-4.744 0m6.936 5.625a2.233 2.233 0 1 0-4.467 0 2.233 2.233 0 0 0 4.467 0m1.473 3.321a2.096 2.096 0 1 0 0 4.191 2.096 2.096 0 0 0 0-4.19m.65 5.299c-1.08 0-1.957.874-1.957 1.954s.877 1.96 1.957 1.96 1.956-.88 1.956-1.96-.876-1.954-1.956-1.954M126.9 153.129a1.948 1.948 0 1 0-3.898.001 1.948 1.948 0 0 0 3.898-.001m-6.522-4.608a2.08 2.08 0 1 0 4.159.002 2.08 2.08 0 0 0-4.16-.002m-5.345 2.66a2.213 2.213 0 0 0 0-4.423 2.211 2.211 0 1 0 0 4.424m-5.638.044a2.344 2.344 0 1 0 0-4.688 2.344 2.344 0 0 0 0 4.688m-16.813-.568a2.517 2.517 0 1 0-.003-5.035 2.517 2.517 0 0 0 .003 5.035m-1.19-6.6a2.508 2.508 0 1 0-5.017.001 2.508 2.508 0 0 0 5.016 0m11.128-31.353a2.37 2.37 0 1 0-4.741 0 2.37 2.37 0 0 0 2.371 2.369 2.37 2.37 0 0 0 2.37-2.37m13.998-26.05a2.532 2.532 0 1 0 0-5.064 2.532 2.532 0 0 0 0 5.064m5.57-5.353a2.694 2.694 0 1 0 0 5.388 2.694 2.694 0 1 0 0-5.388m33.391 70.421a2.404 2.404 0 1 0-.001 4.807 2.404 2.404 0 0 0 .001-4.807m2.146 9.87a2.257 2.257 0 1 0 .001-4.516 2.257 2.257 0 0 0-.001 4.517m5.568 2.578a2.11 2.11 0 1 0-4.22 0 2.11 2.11 0 0 0 4.22 0m-1.114 3.957a1.964 1.964 0 1 0 .003 3.928 1.964 1.964 0 0 0-.003-3.928m-42.823-25.017a2.023 2.023 0 1 0 .002 4.047 2.023 2.023 0 0 0-.002-4.047m-5.15 3.105a2.093 2.093 0 1 0-.001-4.189 2.093 2.093 0 0 0 0 4.19m-5.275.01a2.163 2.163 0 1 0 0-4.328 2.165 2.165 0 0 0 0 4.328m-5.26.038a2.184 2.184 0 1 0-2.186-2.183c0 1.206.978 2.183 2.186 2.183m-5.25-.143a2.185 2.185 0 1 0 .002-4.37 2.185 2.185 0 0 0-.002 4.37m-1.688-5.467a2.185 2.185 0 1 0-4.37-.002 2.185 2.185 0 0 0 4.37.002m6.524-22.219a2.116 2.116 0 1 0 0-4.233 2.116 2.116 0 0 0 0 4.233m.023-6.928a2.088 2.088 0 1 0 4.175 0 2.088 2.088 0 0 0-4.175 0m2.115-4.814a2.083 2.083 0 1 0 4.17-.001 2.083 2.083 0 0 0-4.17.001m2.083-4.813a2.111 2.111 0 1 0 4.222-.002 2.111 2.111 0 0 0-4.222.002m2.084-4.814a2.138 2.138 0 0 0 4.277 0 2.138 2.138 0 1 0-4.277 0m2.365-4.67a2.166 2.166 0 1 0 4.332-.001 2.166 2.166 0 0 0-4.332 0M120.803 90c0-1.249-1.012-2.259-2.26-2.259s-2.26 1.01-2.26 2.259a2.26 2.26 0 1 0 4.52 0m5.179 1.341a2.467 2.467 0 1 0-4.935 0 2.467 2.467 0 0 0 4.935 0m29.577 76.142a2.12 2.12 0 1 0 4.241 0 2.12 2.12 0 0 0-4.241 0m-27.148-14.48a1.745 1.745 0 1 0-.001-3.491 1.745 1.745 0 0 0 0 3.49m-2.068-7.862a1.69 1.69 0 1 0 0 3.38 1.69 1.69 0 0 0 0-3.38m-3.246-3.592a1.633 1.633 0 1 0 0 3.266 1.633 1.633 0 0 0 0-3.266m-4.15.638a1.578 1.578 0 1 0 0-3.156 1.578 1.578 0 0 0 0 3.156m-4.715-1.281a1.566 1.566 0 1 0 0-3.133 1.566 1.566 0 0 0 0 3.133m-6.47-1.668a1.57 1.57 0 1 0 3.142-.002 1.57 1.57 0 0 0-3.141.002m-3.33-1.548a1.575 1.575 0 1 0 .001 3.15 1.575 1.575 0 0 0-.002-3.15m-2.693-.219a1.58 1.58 0 1 0-3.158-.001 1.58 1.58 0 0 0 3.158.001m-2.936-4.65a1.583 1.583 0 1 0 3.165 0 1.583 1.583 0 0 0-3.165 0m5.177-4.474a1.6 1.6 0 1 0-3.2 0 1.6 1.6 0 0 0 3.2 0m.394-6.128a1.652 1.652 0 1 0 0 3.304 1.652 1.652 0 0 0 0-3.304m3.696-2.823a1.702 1.702 0 1 0-3.403.001 1.702 1.702 0 0 0 3.403-.001m.293-6.228a1.754 1.754 0 0 0 0 3.507 1.752 1.752 0 0 0 0-3.507m1.993-4.525a1.803 1.803 0 1 0 0 3.606 1.803 1.803 0 0 0 0-3.606m3.85-2.67a1.855 1.855 0 1 0-3.709 0 1.855 1.855 0 0 0 3.71 0m.14-6.382a1.906 1.906 0 1 0 .002 3.813 1.906 1.906 0 0 0-.002-3.813m4.23-2.399a1.957 1.957 0 1 0-3.914 0 1.957 1.957 0 0 0 3.913 0m4.627-.339a2.038 2.038 0 1 0-4.08.002 2.038 2.038 0 0 0 4.08-.002m34.808 75.17a2.452 2.452 0 1 1-4.713-.952c-.407.238-.855.414-1.362.414a2.737 2.737 0 0 1-2.736-2.738c0-.48.157-.907.373-1.3-.061.003-.113.036-.176.036a2.917 2.917 0 0 1-2.917-2.917c0-.588.217-1.103.514-1.56-1.43-.269-2.535-1.467-2.535-2.977 0-.532.17-1.007.406-1.444-1.385-.377-2.424-1.59-2.424-3.096 0-.49.125-.944.319-1.361-1.33-.462-2.299-1.688-2.299-3.176 0-.475.1-.924.275-1.336a3.45 3.45 0 0 1-2.184-3.203c0-.458.099-.887.26-1.287a3.525 3.525 0 0 1-2.168-3.25c0-.445.103-.862.252-1.252a3.59 3.59 0 0 1-2.16-3.288c0-.435.105-.84.247-1.224a3.64 3.64 0 0 1-2.157-3.313c0-.433.108-.832.245-1.214-1.253-.593-2.135-1.846-2.135-3.326 0-.462.108-.897.264-1.304-1.201-.593-2.047-1.804-2.047-3.233 0-.52.117-1.01.314-1.457-1.155-.556-1.968-1.714-1.968-3.08 0-.603.196-1.141.467-1.633a3.12 3.12 0 0 1-2.003-2.907c0-.706.276-1.324.67-1.85-1.247-.286-2.196-1.35-2.196-2.687 0-.824.368-1.55.933-2.065a2.477 2.477 0 0 1 .038-4.955c.904 0 1.661.51 2.095 1.234.135-.364.338-.686.593-.97a2.83 2.83 0 0 1-2.418-1.876c-.211.997-1.055 1.76-2.116 1.76-1.22 0-2.207-.987-2.207-2.205s.988-2.208 2.207-2.208c.896 0 1.66.54 2.005 1.306.108-.756.49-1.4 1.07-1.847-.09.01-.168.053-.26.053a2.675 2.675 0 0 1 0-5.349c.29 0 .556.081.817.166-.28-.457-.483-.964-.483-1.54 0-.824.335-1.567.87-2.112-.218.052-.426.133-.661.133a2.856 2.856 0 1 1 0-5.713c.643 0 1.207.251 1.684.61 0-.027-.015-.05-.015-.078a3.114 3.114 0 0 1 3.113-3.112c.12 0 .224.055.34.068a3.1 3.1 0 0 1-.321-1.347c0-1.761 1.43-3.19 3.192-3.19.107 0 .196.05.3.06a3.2 3.2 0 0 1-.235-1.164 3.194 3.194 0 0 1 3.194-3.193c.18 0 .336.073.51.103-.049-.218-.134-.424-.134-.658a3.15 3.15 0 0 1 3.147-3.148c.26 0 .495.088.737.149-.01-.098-.058-.184-.058-.287a3.02 3.02 0 1 1 3.02 3.02c-.224 0-.422-.08-.632-.128.018.135.08.253.08.394a3.145 3.145 0 0 1-3.147 3.146c-.167 0-.31-.07-.47-.096.053.231.14.45.14.698a3.195 3.195 0 0 1-3.193 3.196c-.106 0-.197-.05-.302-.06.142.359.235.746.235 1.158 0 .261-.09.492-.149.736a3.21 3.21 0 0 1 2.936-1.924c.203 0 .382.08.575.115-.009-.09-.054-.17-.054-.264 0-1.728 1.4-3.127 3.128-3.127.313 0 .598.093.883.178a2.96 2.96 0 0 1 2.956-2.937 2.961 2.961 0 0 1 0 5.922c-.26 0-.494-.086-.735-.149.001.04.023.073.023.113 0 1.726-1.4 3.126-3.127 3.126-.178 0-.333-.073-.504-.1.013.115.07.218.07.338a3.215 3.215 0 0 1-3.215 3.216c-.114 0-.211-.053-.322-.065.062.251.154.492.154.761 0 1.271-.748 2.341-1.81 2.877.334-.114.677-.212 1.047-.212.147 0 .273.066.413.083-.01-.108-.062-.203-.062-.314a3.237 3.237 0 0 1 3.237-3.235c.265 0 .5.09.748.15a3.076 3.076 0 0 1 3.068-2.997c.41 0 .796.088 1.154.234.147-1.465 1.343-2.623 2.845-2.623a2.902 2.902 0 1 1 0 5.806c-.334 0-.643-.086-.942-.191-.078 1.638-1.403 2.947-3.057 2.947-.207 0-.388-.078-.584-.118 0 .01.005.017.005.027a3.24 3.24 0 0 1-3.237 3.239c-.126 0-.233-.058-.356-.07.015.125.076.238.076.369 0 1.208-.681 2.22-1.648 2.796.27-.07.533-.166.827-.166.213 0 .397.083.598.12a3.165 3.165 0 0 1 3.16-3.112c.369 0 .71.093 1.04.208.172-1.497 1.399-2.678 2.944-2.678.515 0 .975.164 1.4.39.201-1.372 1.333-2.442 2.76-2.442a2.844 2.844 0 0 1 0 5.688c-.44 0-.844-.119-1.216-.297-.17 1.502-1.397 2.686-2.944 2.686-.303 0-.578-.09-.853-.171-.113 1.645-1.452 2.962-3.13 2.962-.154 0-.284-.065-.431-.088 0 .028.015.05.015.075 0 1.29-.754 2.374-1.823 2.932.31-.1.625-.196.967-.196.32 0 .61.096.9.181.143-1.568 1.422-2.814 3.028-2.814.475 0 .912.128 1.316.32.244-1.375 1.391-2.438 2.835-2.438.62 0 1.165.237 1.639.566.245-1.29 1.325-2.281 2.683-2.281a2.784 2.784 0 1 1 0 5.57c-.553 0-1.039-.204-1.472-.48-.217 1.404-1.382 2.502-2.85 2.502-.411 0-.8-.088-1.155-.239-.22 1.487-1.448 2.645-2.996 2.645-.256 0-.483-.088-.72-.145-.084 1.713-1.473 3.085-3.208 3.085-.157 0-.291-.068-.442-.088a3.4 3.4 0 0 1-.903 2.173c.282.013.543.083.802.16.243-1.487 1.476-2.64 3.032-2.64.426 0 .83.088 1.2.242.238-1.415 1.414-2.515 2.897-2.515.59 0 1.11.216 1.573.51.279-1.289 1.372-2.274 2.745-2.274.727 0 1.373.294 1.878.739.282-1.204 1.314-2.12 2.605-2.12a2.726 2.726 0 0 1 0 5.454c-.667 0-1.256-.267-1.731-.666-.261 1.309-1.364 2.319-2.752 2.319-.533 0-1.004-.186-1.431-.44-.258 1.392-1.42 2.465-2.887 2.465-.369 0-.716-.088-1.042-.212-.191 1.546-1.459 2.759-3.055 2.759-.254 0-.48-.088-.717-.146-.08.79-.389 1.513-.922 2.043.44.002.86.088 1.242.248.32-1.324 1.46-2.328 2.884-2.328.548 0 1.033.183 1.476.44.265-1.332 1.384-2.352 2.791-2.352.706 0 1.33.281 1.833.7.306-1.205 1.35-2.115 2.652-2.115.852 0 1.589.405 2.101 1.01.284-1.168 1.289-2.055 2.544-2.055a2.668 2.668 0 0 1 0 5.336c-.794 0-1.488-.362-1.976-.912-.278 1.246-1.34 2.199-2.67 2.199-.654 0-1.23-.26-1.705-.639-.293 1.297-1.396 2.282-2.779 2.282-.494 0-.936-.154-1.343-.372-.246 1.422-1.43 2.525-2.924 2.525-.35 0-.676-.09-.989-.201-.142.864-.599 1.59-1.278 2.082.153-.022.291-.09.45-.09.566 0 1.068.19 1.527.455.32-1.264 1.414-2.219 2.777-2.219.67 0 1.258.264 1.75.643.29-1.246 1.354-2.193 2.688-2.193.834 0 1.563.38 2.078.955.314-1.15 1.322-2.018 2.574-2.018.997 0 1.831.566 2.303 1.367.254-1.176 1.25-2.075 2.501-2.075a2.61 2.61 0 1 1 0 5.218c-.946 0-1.737-.53-2.194-1.284-.248 1.246-1.294 2.203-2.61 2.203a2.69 2.69 0 0 1-1.975-.876c-.31 1.218-1.363 2.138-2.677 2.138-.623 0-1.168-.242-1.634-.586-.274 1.33-1.396 2.347-2.804 2.347-.476 0-.907-.14-1.304-.342-.291 1.422-1.49 2.512-3 2.512-.126 0-.234-.057-.357-.073.134.327.192.689.213 1.058.52-.844 1.41-1.437 2.476-1.437.683 0 1.283.269 1.784.658.309-1.218 1.361-2.138 2.675-2.138.795 0 1.508.337 2.019.867.303-1.173 1.321-2.057 2.59-2.057.991 0 1.819.555 2.296 1.346.273-1.168 1.27-2.057 2.521-2.057 1.191 0 2.16.804 2.489 1.889.152-1.259 1.18-2.249 2.478-2.249a2.538 2.538 0 1 1 0 5.077c-1.135 0-2.06-.756-2.385-1.786-.152 1.314-1.228 2.35-2.582 2.35-.95 0-1.743-.53-2.208-1.282-.266 1.224-1.306 2.16-2.609 2.16a2.7 2.7 0 0 1-1.926-.798c-.299 1.233-1.359 2.168-2.683 2.168-.619 0-1.162-.241-1.626-.58-.29 1.329-1.417 2.343-2.833 2.343-.246 0-.466-.082-.696-.14.123.329.212.678.212 1.05 0 1.02-.535 1.88-1.305 2.432.138-.02.262-.08.405-.08.385 0 .751.08 1.086.218-.08-.259-.163-.523-.163-.809a2.79 2.79 0 0 1 2.791-2.791c.812 0 1.526.357 2.036.91.282-1.191 1.303-2.098 2.582-2.098.968 0 1.78.537 2.256 1.303.238-1.2 1.248-2.125 2.52-2.125 1.22 0 2.2.85 2.492 1.977.114-1.294 1.17-2.321 2.494-2.321a2.538 2.538 0 1 1 0 5.077c-1.174 0-2.119-.814-2.409-1.897-.114 1.342-1.206 2.405-2.576 2.405-.928 0-1.706-.513-2.17-1.241-.234 1.258-1.285 2.228-2.607 2.228a2.68 2.68 0 0 1-1.945-.842c-.277 1.252-1.34 2.206-2.673 2.206-.365 0-.71-.08-1.031-.208.09.279.174.56.174.866a2.857 2.857 0 0 1-2.857 2.857c-.715 0-1.35-.289-1.85-.721-.126.306-.325.565-.537.814.86.113 1.577.583 2.033 1.274a2.69 2.69 0 0 1 2.5-1.714c.528 0 .993.191 1.41.455-.08-.254-.16-.508-.16-.789a2.65 2.65 0 0 1 2.65-2.648c.986 0 1.81.563 2.267 1.362.18-1.246 1.21-2.219 2.506-2.219 1.212 0 2.18.852 2.456 1.98a2.498 2.498 0 0 1 4.997.068 2.506 2.506 0 0 1-2.505 2.507c-1.173 0-2.112-.824-2.386-1.91a2.57 2.57 0 0 1-2.562 2.508c-.951 0-1.747-.54-2.195-1.306-.174 1.296-1.238 2.309-2.578 2.309-.512 0-.963-.184-1.367-.435.084.261.164.528.164.816a2.7 2.7 0 0 1-2.698 2.699c-.91 0-1.673-.48-2.163-1.169a2.9 2.9 0 0 1-.741 1.186c1.259 0 2.272.867 2.593 2.025.228-1.176 1.214-2.08 2.457-2.08.672 0 1.273.271 1.728.696-.078-.244-.153-.49-.153-.761a2.51 2.51 0 1 1 2.51 2.51 2.48 2.48 0 0 1-1.692-.681c.083.25.158.507.158.786a2.55 2.55 0 0 1-2.551 2.55c-1.155 0-2.092-.779-2.407-1.832-.155.862-.678 1.58-1.438 1.963.25-.08.503-.159.78-.159a2.588 2.588 0 1 1 0 5.178c-.54 0-1.015-.203-1.43-.487-.074.359-.19.688-.373.995.614.195 1.12.565 1.503 1.067.305-.995 1.195-1.733 2.29-1.733a2.434 2.434 0 0 1 0 4.866c-.68 0-1.292-.281-1.733-.731a3 3 0 0 1-.496 1.183c.92.209 1.695.802 2.056 1.653.162-1.1 1.07-1.957 2.212-1.957a2.278 2.278 0 0 1 0 4.555c-.891 0-1.645-.528-2.02-1.274-.03.47-.182.89-.409 1.274.024-.002.044-.015.068-.015a2.736 2.736 0 0 1 2.736 2.736c0 .417-.11.804-.277 1.158.35-.193.734-.334 1.164-.334a2.45 2.45 0 0 1 2.452 2.452m-24.574-85.056c.223-.048.434-.135.673-.135.104 0 .192.05.294.06-.072-.246-.14-.493-.152-.756a3 3 0 0 1-.815.831m11.765 37.96q-.002.001-.003.003h.004zm3.915 26.81c-.269.087-.543.17-.84.17-.419 0-.803-.108-1.157-.276-.062.291-.126.572-.256.831.376.146.71.36 1.004.626a2.58 2.58 0 0 1 1.25-1.352m-2.77-4.523c-.021 0-.04.013-.061.013-.333 0-.64-.088-.937-.189-.05.266-.077.538-.185.779.212.088.377.246.564.372a2.7 2.7 0 0 1 .62-.975m1.025-10.976c-.162.025-.307.095-.477.095-.559 0-1.054-.19-1.505-.454-.089.21-.25.374-.378.562.572.136 1.103.375 1.505.78.203-.4.5-.72.855-.983m-4.924-34.953c-.098 0-.18-.048-.277-.056 0 .023.013.043.013.066 0 .869-.35 1.64-.885 2.243.16.01.305.06.458.093a3.18 3.18 0 0 1 1.7-2.55c-.324.103-.65.204-1.009.204m-2.487-6.005c-.105 0-.195-.05-.298-.06.023.153.09.289.09.447 0 .206-.08.385-.116.578.285-.467.667-.85 1.138-1.128-.267.068-.525.163-.814.163m-1.463-6.235c-.327.11-.661.206-1.024.206-.116 0-.212-.055-.325-.065.079.278.173.552.173.856 0 .018-.01.035-.01.053.311-.44.7-.806 1.186-1.05m-3.585-5.79c-.138 0-.255-.064-.388-.079.155.342.234.719.256 1.113.576-.904 1.541-1.537 2.693-1.537.124 0 .23.057.35.07-.057-.241-.148-.472-.148-.734 0-.263.09-.5.151-.743a3.19 3.19 0 0 1-2.914 1.91m25.435 89.057a2.164 2.164 0 1 0 .004 4.327 2.164 2.164 0 0 0-.004-4.327" style="fill:#fff"/></svg>